<svg xmlns="http://www.w3.org/2000/svg" width="512" height="512" enable-background="new 0 0 512 512" viewBox="0 0 512 512"><path fill="none" stroke="#000" stroke-linecap="round" stroke-linejoin="round" stroke-miterlimit="10" stroke-width="8" d="
			M495.766,408.158c0,9.598,0,19.197,0,28.801c0,22.665-18.546,41.188-41.217,41.188H58.154c-22.671,0-41.217-18.522-41.217-41.188
			V120.833c0-22.672,18.546-41.188,41.217-41.188h396.395c22.671,0,41.217,18.517,41.217,41.188c0,65.406,0,130.813,0,196.214
			 M495.766,317.047c0,7.81,0,83.307,0,91.111"/><path d="M125.45 278.063H50.908c-2.209 0-4-1.791-4-4v-59.21c0-2.209 1.791-4 4-4h74.542c2.209 0 4 1.791 4 4v59.21C129.45 276.272 127.659 278.063 125.45 278.063zM54.908 270.063h66.542v-51.21H54.908V270.063zM237.307 278.063h-74.571c-2.209 0-4-1.791-4-4v-59.21c0-2.209 1.791-4 4-4h74.571c2.209 0 4 1.791 4 4v59.21C241.307 276.272 239.516 278.063 237.307 278.063zM166.735 270.063h66.571v-51.21h-66.571V270.063zM349.134 278.063h-74.571c-2.209 0-4-1.791-4-4v-59.21c0-2.209 1.791-4 4-4h74.571c2.209 0 4 1.791 4 4v59.21C353.134 276.272 351.343 278.063 349.134 278.063zM278.563 270.063h66.571v-51.21h-66.571V270.063zM460.956 278.063H386.42c-2.209 0-4-1.791-4-4v-59.21c0-2.209 1.791-4 4-4h74.536c2.209 0 4 1.791 4 4v59.21C464.956 276.272 463.165 278.063 460.956 278.063zM390.42 270.063h66.536v-51.21H390.42V270.063z"/><path fill="none" stroke="#000" stroke-linecap="round" stroke-linejoin="round" stroke-miterlimit="2.613" stroke-width="8" d="
			M448.852,182.771l43.569,1.051 M16.937,182.771h387.941"/><path d="M125.45 363.971H50.908c-2.209 0-4-1.791-4-4V300.76c0-2.209 1.791-4 4-4h74.542c2.209 0 4 1.791 4 4v59.211C129.45 362.18 127.659 363.971 125.45 363.971zM54.908 355.971h66.542V304.76H54.908V355.971zM237.307 363.971h-74.571c-2.209 0-4-1.791-4-4V300.76c0-2.209 1.791-4 4-4h74.571c2.209 0 4 1.791 4 4v59.211C241.307 362.18 239.516 363.971 237.307 363.971zM166.735 355.971h66.571V304.76h-66.571V355.971zM349.134 363.971h-74.571c-2.209 0-4-1.791-4-4V300.76c0-2.209 1.791-4 4-4h74.571c2.209 0 4 1.791 4 4v59.211C353.134 362.18 351.343 363.971 349.134 363.971zM278.563 355.971h66.571V304.76h-66.571V355.971zM460.956 363.971H386.42c-2.209 0-4-1.791-4-4V300.76c0-2.209 1.791-4 4-4h74.536c2.209 0 4 1.791 4 4v59.211C464.956 362.18 463.165 363.971 460.956 363.971zM390.42 355.971h66.536V304.76H390.42V355.971zM125.45 449.941H50.908c-2.209 0-4-1.791-4-4v-59.21c0-2.209 1.791-4 4-4h74.542c2.209 0 4 1.791 4 4v59.21C129.45 448.15 127.659 449.941 125.45 449.941zM54.908 441.941h66.542v-51.21H54.908V441.941zM237.307 449.941h-74.571c-2.209 0-4-1.791-4-4v-59.21c0-2.209 1.791-4 4-4h74.571c2.209 0 4 1.791 4 4v59.21C241.307 448.15 239.516 449.941 237.307 449.941zM166.735 441.941h66.571v-51.21h-66.571V441.941zM104.545 116.102c-2.209 0-4-1.791-4-4V34.556c0-2.209 1.791-4 4-4s4 1.791 4 4v77.546C108.545 114.311 106.754 116.102 104.545 116.102zM370.468 116.102c-2.209 0-4-1.791-4-4V34.556c0-2.209 1.791-4 4-4s4 1.791 4 4v77.546C374.468 114.311 372.677 116.102 370.468 116.102zM142.235 116.102c-2.209 0-4-1.791-4-4V34.556c0-2.209 1.791-4 4-4s4 1.791 4 4v77.546C146.235 114.311 144.444 116.102 142.235 116.102zM408.129 116.102c-2.209 0-4-1.791-4-4V34.556c0-2.209 1.791-4 4-4s4 1.791 4 4v77.546C412.129 114.311 410.338 116.102 408.129 116.102z"/></svg>