<svg xmlns="http://www.w3.org/2000/svg" viewBox="0 0 50 50"><path d="M42.343 1a6.61 6.61 0 0 0-4.707 1.95L4.293 36.293l-.188.187-3.53 12.945 12.945-3.53 33.53-33.531A6.612 6.612 0 0 0 49 7.657 6.664 6.664 0 0 0 42.343 1zM6.414 37 31 12.414 37.586 19 13 43.586 6.414 37zm26-26L35 8.414 41.586 15 39 17.586 32.414 11zM5.512 38.926l5.563 5.563-7.649 2.086 2.086-7.649zM45.636 10.95 43 13.586 36.414 7l2.636-2.636A4.625 4.625 0 0 1 42.343 3 4.662 4.662 0 0 1 47 7.657a4.625 4.625 0 0 1-1.364 3.293z"/></svg>